<svg version="1.1" viewBox="0 0 52 15" xmlns="http://www.w3.org/2000/svg">
 <path d="m.006 12.86h23.87v-10.68h-23.87z" style="fill:#fff;stroke-width:.2553"/>
 <g transform="matrix(.2063 0 0 .2083 26.43 -1.55)">
  <rect x="48.37" y="15.14" width="34.66" height="56.61" fill="#ff5f00"/>
  <path d="m51.94 43.45a35.94 35.94 0 0113.75-28.3 36 36 0 100 56.61 35.94 35.94 0 01-13.75-28.31z" fill="#eb001b"/>
  <path d="m123.9 43.45a36 36 0 01-58.25 28.3 36 36 0 000-56.61 36 36 0 0158.25 28.3z" fill="#f79e1b"/>
 </g>
 <path d="m.00575 12.86h23.87v2.158h-23.87z" style="fill:#f7b600;stroke-width:.1148"/>
 <path d="m.00575 2.18h23.87v-2.158h-23.87z" style="fill:#1a1f71;stroke-width:.1148"/>
 <g transform="matrix(.1143 0 0 -.1153 11.73 4.556)">
  <path d="m0 0-11.01-51.46h-13.31l11.01 51.46zm56-33.23 7.008 19.32 4.031-19.32zm14.86-18.23h12.31l-10.75 51.46h-11.36c-2.559 0-4.715-1.484-5.67-3.772l-19.98-47.68h13.98l2.776 7.684h17.08zm-34.75 16.8c.059 13.58-18.77 14.33-18.65 20.4.041 1.844 1.799 3.808 5.644 4.31 1.907.246 7.166.444 13.13-2.303l2.332 10.92c-3.203 1.158-7.324 2.274-12.45 2.274-13.16 0-22.42-6.99-22.49-17.01-.084-7.408 6.613-11.54 11.65-14 5.192-2.522 6.932-4.14 6.907-6.393-.036-3.452-4.141-4.98-7.961-5.038-6.698-.104-10.58 1.81-13.67 3.252l-2.416-11.28c3.115-1.426 8.855-2.667 14.8-2.731 13.99 0 23.14 6.909 23.18 17.61m-55.13 34.66-21.57-51.46h-14.07l-10.62 41.06c-.643 2.525-1.204 3.453-3.161 4.52-3.201 1.739-8.486 3.365-13.13 4.377l.314 1.493h22.65c2.885 0 5.481-1.92 6.141-5.243l5.607-29.78 13.85 35.02z" style="fill:#1a1f71"/>
 </g>
</svg>
