<?xml version="1.0" encoding="UTF-8" standalone="no"?>
<svg
   width="56.861164"
   height="23"
   viewBox="0 0 56.861164 22.999999"
   version="1.1"
   id="svg6"
   sodipodi:docname="klarna.svg"
   inkscape:version="1.3.2 (091e20e, 2023-11-25)"
   xmlns:inkscape="http://www.inkscape.org/namespaces/inkscape"
   xmlns:sodipodi="http://sodipodi.sourceforge.net/DTD/sodipodi-0.dtd"
   xmlns="http://www.w3.org/2000/svg"
   xmlns:svg="http://www.w3.org/2000/svg">
  <sodipodi:namedview
     id="namedview6"
     pagecolor="#ffffff"
     bordercolor="#000000"
     borderopacity="0.25"
     inkscape:showpageshadow="2"
     inkscape:pageopacity="0.0"
     inkscape:pagecheckerboard="0"
     inkscape:deskcolor="#d1d1d1"
     inkscape:zoom="9.4"
     inkscape:cx="44.468085"
     inkscape:cy="21.06383"
     inkscape:window-width="1920"
     inkscape:window-height="1027"
     inkscape:window-x="0"
     inkscape:window-y="25"
     inkscape:window-maximized="1"
     inkscape:current-layer="svg6" />
  <defs
     id="defs1">
    <style
       id="style1">.cls-1{fill:#ffb3c7;}</style>
  </defs>
  <g
     id="Lager_2"
     data-name="Lager 2"
     transform="scale(0.56861162)">
    <g
       id="Layer_1"
       data-name="Layer 1">
      <rect
         class="cls-1"
         width="100"
         height="40.449402"
         rx="11.7384"
         id="rect1"
         x="0"
         y="0" />
      <path
         d="m 80.0772,17.7235 a 6.194,6.194 0 1 0 0,10.2373 v 0.75 h 3.5145 V 16.9727 h -3.5145 z m -3.1964,8.1388 a 3.0243,3.0243 0 1 1 3.1849,-3.02 3.1059,3.1059 0 0 1 -3.1849,3.02 z"
         id="path1" />
      <rect
         x="28.2027"
         y="11.7416"
         width="3.678"
         height="16.9694"
         id="rect2" />
      <path
         d="m 64.1542,16.6569 a 4.2694,4.2694 0 0 0 -3.62,1.6383 v -1.3219 h -3.5 V 28.711 h 3.5421 v -6.1686 a 2.4754,2.4754 0 0 1 2.6383,-2.6591 c 1.5447,0 2.4325,0.9228 2.4325,2.6348 v 6.1929 h 3.5107 v -7.4646 c -10e-5,-2.7318 -2.1721,-4.5895 -5.0036,-4.5895 z"
         id="path2" />
      <path
         d="m 43,17.7235 a 6.194,6.194 0 1 0 0,10.2373 v 0.75 h 3.5145 V 16.9727 H 43 Z m -3.1965,8.1388 a 3.0243,3.0243 0 1 1 3.1845,-3.02 3.1058,3.1058 0 0 1 -3.1846,3.02 z"
         id="path3" />
      <path
         d="M 51.9513,18.5017 V 16.9728 H 48.353 v 11.7383 h 3.606 v -5.48 c 0,-1.8491 2.0042,-2.843 3.3949,-2.843 0.014,0 0.0276,0.0014 0.0417,0.0015 v -3.4161 a 4.3821,4.3821 0 0 0 -3.4443,1.5282 z"
         id="path4" />
      <path
         d="m 87.323,24.5476 a 2.2059,2.2059 0 1 0 2.206,2.2059 2.2057,2.2057 0 0 0 -2.206,-2.2059 z"
         id="path5" />
      <path
         d="m 25.6675,11.7384 h -3.8117 a 9.7488,9.7488 0 0 1 -3.9412,7.8678 l -1.51,1.131 5.8513,7.9792 h 4.8106 l -5.3837,-7.342 a 13.5049,13.5049 0 0 0 3.9847,-9.636 z"
         id="path6" />
      <rect
         x="12.1204"
         y="11.7384"
         width="3.8185"
         height="16.977301"
         id="rect6" />
    </g>
  </g>
</svg>
