<svg version="1.1" width="84" height="23" viewBox="0 0 84 23" xmlns="http://www.w3.org/2000/svg">
 <defs>
  <style>.cls-1{fill:#a70584;}.cls-2{fill:#36b587;}.cls-3{fill:#fad05b;}.cls-4{fill:#000000;}</style>
 </defs>
 <g transform="matrix(.082111 0 0 .082115 -1.9197 -1.5922)">
  <rect class="cls-1" transform="rotate(90 133.64 208.26)" x="103.88" y="178.25" width="59.51" height="60"/>
  <rect class="cls-2" transform="rotate(90 133.38 127.76)" x="103.39" y="97.76" width="60" height="60"/>
  <rect class="cls-3" transform="rotate(90 53.385 207.76)" x="23.39" y="177.76" width="60" height="60"/>
  <path class="cls-4" d="m342.51 94c0 41.36-33.28 74.65-76.2 74.65h-32.66v68.42h-49.76v-217.68h82.42c42.92 0 76.2 33.28 76.2 74.61zm-49.76 0c0-15.87-11.2-28-26.44-28h-32.66v56h32.66c15.24 0 26.44-12.1 26.44-28z"/>
  <path class="cls-4" d="m516.07 77.35v159.65h-47.89v-15c-10.54 12.13-26.18 19.48-47.58 19.48-41.82 0-76.31-36.72-76.31-84.3s34.49-84.29 76.31-84.29c21.4 0 37 7.34 47.58 19.48v-15zm-47.89 79.82c0-23.94-16-38.95-38-38.95s-38 15-38 38.95 16 39 38 39 38-15.05 38-39z"/>
  <path class="cls-4" d="m698 77.35-54.2 153.79c-17.76 50.42-46 70.4-90.37 68.18v-44.4c22.19 0 32.66-7 39.64-26.31l-63.07-151.26h52.32l35.2 97 29.81-97z"/>
  <path class="cls-4" d="m875.32 94c0 41.36-33.29 74.65-76.21 74.65h-32.66v68.42h-49.76v-217.68h82.42c42.89 0 76.21 33.28 76.21 74.61zm-49.77 0c0-15.87-11.2-28-26.44-28h-32.66v56h32.66c15.24 0 26.44-12.1 26.44-28z"/>
  <path class="cls-4" d="m881.54 159.35c0-46.34 36.7-82.11 82.42-82.11s82.43 35.77 82.43 82.11-36.71 82.12-82.43 82.12-82.42-35.77-82.42-82.12zm118.19 0c0-22.08-15.55-36.7-35.77-36.7s-35.77 14.62-35.77 36.7 15.55 36.71 35.77 36.71 35.77-14.62 35.77-36.71z"/>
 </g>
</svg>
