<svg version="1.1" width="77" height="23" viewBox="0 0 77 23" xmlns="http://www.w3.org/2000/svg">
 <defs>
  <linearGradient id="linearGradient-1" x1="50.792" x2="73.45" y1="-2.9245" y2="19.734" gradientTransform="scale(1.0009 .9991)" gradientUnits="userSpaceOnUse">
   <stop stop-color="#82BC00" stop-opacity="0" offset="0"/>
   <stop stop-color="#82BC00" offset="1"/>
  </linearGradient>
 </defs>
 <g transform="scale(.32857)" fill="none" fill-rule="evenodd">
  <g transform="translate(-1038,-265)" fill-rule="nonzero">
   <g transform="translate(960,180)">
    <g id="Twisto-h-c" transform="translate(78,85)">
     <g id="Logo">
      <g id="Group" transform="translate(91.163 11.9)" fill="#4e0f89">
       <path d="m11.113 27.738v-11.32h5.6646v-5.7754h-5.6646v-7.0459h-7.1675v7.0459h-3.9305v5.7754h3.9305v12.244c0 5.7754 3.3525 8.3165 8.5547 8.3165 1.9653 0 3.6993-0.34652 4.6242-0.80855v-6.3529c-0.80923 0.57754-2.0809 0.92406-3.1213 0.92406-1.7341-0.11551-2.8901-1.0396-2.8901-3.0032z"/>
       <polygon points="49.031 36.401 56.892 10.643 49.956 10.643 45.332 27.045 40.939 10.643 35.505 10.643 31.228 27.045 26.604 10.643 19.436 10.643 27.297 36.401 33.887 36.401 38.164 20.577 42.441 36.401"/>
       <polygon points="67.874 36.517 60.707 36.517 60.707 10.643 67.874 10.643"/>
       <path d="m87.643 21.155-5.3178-1.2706c-1.6185-0.46203-2.3121-1.0396-2.3121-2.0791 0-1.6171 1.7341-2.4257 3.4681-2.4257 2.4277 0 3.5837 1.1551 4.0462 2.5412h6.8207c-0.92484-4.8513-4.5086-7.97-10.982-7.97-5.7802 0-10.289 3.3497-10.289 8.432 0 4.3893 2.7745 6.3529 6.7051 7.277l5.2022 1.1551c1.8497 0.46203 2.6589 1.0396 2.6589 2.1946 0 1.7326-1.5029 2.5412-3.6993 2.5412-2.1965 0-3.8149-1.0396-4.393-2.8877h-7.1675c0.80923 5.3133 5.2022 8.3165 11.56 8.3165 6.0114 0 10.636-3.1187 10.636-8.432 0-3.8117-2.4277-6.3529-6.9363-7.3925z"/>
       <path d="m108.1 27.738v-11.32h5.6646v-5.7754h-5.6646v-7.0459h-7.1675v7.0459h-3.9306v5.7754h3.9306v12.244c0 5.7754 3.3525 8.3165 8.5547 8.3165 1.9653 0 3.6993-0.34652 4.6242-0.80855v-6.3529c-0.80923 0.57754-2.0809 0.92406-3.1213 0.92406-1.8497-0.11551-2.8901-1.0396-2.8901-3.0032z"/>
       <path d="m129.53 10.048c-7.5143 0-13.526 6.0064-13.526 13.514 0 7.508 6.0114 13.514 13.526 13.514 7.5143 0 13.526-6.0064 13.526-13.514 0-7.508-6.0114-13.514-13.526-13.514zm0 19.983c-3.5837 0-6.5894-3.0032-6.5894-6.5839s3.0057-6.5839 6.5894-6.5839c3.5837 0 6.5894 3.0032 6.5894 6.5839s-3.0057 6.5839-6.5894 6.5839z"/>
       <ellipse cx="64.291" cy="3.5974" rx="3.5837" ry="3.5807"/>
      </g>
      <polygon points="23.492 23.333 23.492 70 46.984 70 46.984 0 0 0 0 23.333" fill="#4e0f89"/>
      <path d="m46.984 0c0 12.82 10.414 23.1 23.141 23.1v-23.1z" fill="#009d4e"/>
      <path d="m46.984 0c0 12.82 10.414 23.1 23.141 23.1v-23.1z" fill="url(#linearGradient-1)"/>
     </g>
    </g>
   </g>
  </g>
 </g>
</svg>
